<?xml version="1.0" encoding="UTF-8" standalone="no"?>
<svg width="22px" height="16px" viewBox="0 0 22 16" version="1.1" xmlns="http://www.w3.org/2000/svg" xmlns:xlink="http://www.w3.org/1999/xlink">
    <!-- Generator: Sketch 3.6 (26304) - http://www.bohemiancoding.com/sketch -->
    <title>Page 1</title>
    <desc>Created with Sketch.</desc>
    <defs></defs>
    <g id="Page-1" stroke="none" stroke-width="1" fill="none" fill-rule="evenodd">
        <g id="Desktop-HD" transform="translate(-610.000000, -941.000000)">
            <g id="Page-1" transform="translate(610.000000, 941.000000)">
                <path d="M22,13.4545455 C22,14.7933333 20.9055,15.8787879 19.5555556,15.8787879 L2.44444444,15.8787879 C1.0945,15.8787879 0,14.7933333 0,13.4545455 L0,2.54545455 C0,1.20666667 1.0945,0.121212121 2.44444444,0.121212121 L19.5555556,0.121212121 C20.9055,0.121212121 22,1.20666667 22,2.54545455 L22,13.4545455 L22,13.4545455 Z" id="Fill-1" fill="#CCD6DD"></path>
                <path d="M7.30259689,7.77921455 L0.389094836,14.6361818 C0.372594591,14.6525459 0.36648392,14.6737581 0.352427924,14.6907278 C0.560205556,15.0367884 0.849872222,15.322849 1.19820556,15.5295152 C1.21592778,15.5155762 1.23670556,15.5095152 1.25320556,15.4937576 L8.16731911,8.63618424 C8.40565244,8.39921455 8.40565244,8.0167903 8.16731911,7.77921455 C7.92776356,7.54224485 7.54154133,7.54224485 7.30259689,7.77921455" id="Fill-3" fill="#99AAB5"></path>
                <path d="M21.6473302,14.6909091 C21.6344969,14.6739394 21.6271636,14.6527273 21.6106636,14.6363636 L14.6977747,7.77939394 C14.4582191,7.54242424 14.0719969,7.54242424 13.8330524,7.77939394 C13.594108,8.01636364 13.594108,8.39939394 13.8330524,8.63636364 L20.7465524,15.4933333 C20.7630524,15.509697 20.7844413,15.5157576 20.8015524,15.529697 C21.151108,15.3236364 21.4395524,15.0363636 21.6473302,14.6909091" id="Fill-4" fill="#99AAB5"></path>
                <path d="M19.5555556,0.121212121 L2.44444444,0.121212121 C1.0945,0.121212121 0,1.20666667 0,2.54545455 L0,3.16969697 L8.87822222,11.9545455 C10.0356667,13.1024242 11.9264444,13.1024242 13.0851111,11.9545455 L22,3.1569697 L22,2.54545455 C22,1.20666667 20.9055,0.121212121 19.5555556,0.121212121" id="Fill-5" fill="#99AAB5"></path>
                <path d="M19.5555556,0.121212121 L2.44444444,0.121212121 C1.47400049,0.121212121 0.642278267,0.687272727 0.24750044,1.5 L9.27116667,10.449697 C10.2257222,11.3963636 11.7742778,11.3963636 12.7282222,10.449697 L21.7525,1.5 C21.3577222,0.687272727 20.5266111,0.121212121 19.5555556,0.121212121" id="Fill-6" fill="#E1E8ED"></path>
            </g>
        </g>
    </g>
</svg>