<?xml version="1.0" encoding="UTF-8" standalone="no"?>
<svg width="54px" height="54px" viewBox="0 0 54 54" version="1.1" xmlns="http://www.w3.org/2000/svg" xmlns:xlink="http://www.w3.org/1999/xlink">
    <!-- Generator: Sketch 3.6 (26304) - http://www.bohemiancoding.com/sketch -->
    <title>Page 1</title>
    <desc>Created with Sketch.</desc>
    <defs></defs>
    <g id="Page-1" stroke="none" stroke-width="1" fill="none" fill-rule="evenodd">
        <g id="Desktop-HD" transform="translate(-862.000000, -620.000000)" fill="#66757F">
            <path d="M889,659 C882.3715,659 877,653.627 877,647 C877,640.3715 882.3715,635 889,635 C895.627,635 901,640.3715 901,647 C901,653.627 895.627,659 889,659 M913,642.5 L907.957,642.5 C907.471,640.4465 906.6625,638.5235 905.584,636.779 L909.1525,633.212 C910.324,632.039 910.324,630.14 909.1525,628.9685 L907.0315,626.8475 C905.8585,625.676 903.961,625.676 902.788,626.8475 L899.221,630.416 C897.475,629.3375 895.5535,628.529 893.5,628.043 L893.5,623 C893.5,621.344 892.1575,620 890.5,620 L887.5,620 C885.844,620 884.5,621.344 884.5,623 L884.5,628.043 C882.4465,628.529 880.525,629.3375 878.779,630.416 L875.212,626.8475 C874.039,625.676 872.139999,625.676 870.9685,626.8475 L868.847501,628.9685 C867.676,630.14 867.676,632.0405 868.846,633.212 L872.416,636.779 C871.3375,638.525 870.529,640.448 870.042999,642.5 L865,642.5 C863.344,642.5 862,643.8425 862,645.5 L862,648.5 C862,650.156 863.344,651.5 865,651.5 L870.042999,651.5 C870.529,653.552 871.337499,655.475 872.415999,657.2195 L868.845999,660.788 C867.675999,661.9595 867.675999,663.86 868.847499,665.0315 L870.9685,667.154 C872.14,668.324 874.039,668.324 875.212,667.154 L878.779,663.584 C880.525,664.6625 882.4465,665.471 884.5,665.957 L884.5,671 C884.5,672.657499 885.844,674 887.5,674 L890.5,674 C892.1575,674 893.5,672.657499 893.5,671 L893.5,665.957 C895.552,665.471 897.475,664.6625 899.2195,663.584 L902.788,667.154 C903.961,668.3255 905.8585,668.3255 907.0315,667.154 L909.1525,665.0315 C910.324,663.86 910.324,661.961 909.1525,660.788 L905.584,657.221 C906.6625,655.4765 907.471,653.5535 907.957,651.5 L913,651.5 C914.6575,651.5 916,650.156 916,648.5 L916,645.5 C916,643.8425 914.6575,642.5 913,642.5" id="Page-1"></path>
        </g>
    </g>
</svg>