<?xml version="1.0" encoding="UTF-8" standalone="no"?>
<svg width="56px" height="57px" viewBox="0 0 56 57" version="1.1" xmlns="http://www.w3.org/2000/svg" xmlns:xlink="http://www.w3.org/1999/xlink">
    <!-- Generator: Sketch 3.6 (26304) - http://www.bohemiancoding.com/sketch -->
    <title>Page 1</title>
    <desc>Created with Sketch.</desc>
    <defs></defs>
    <g id="Page-1" stroke="none" stroke-width="1" fill="none" fill-rule="evenodd">
        <g id="Desktop-HD" transform="translate(-579.000000, -102.000000)">
            <g id="Page-1" transform="translate(579.000000, 102.000000)">
                <path d="M8.09659091,31.478892 C8.09659091,35.0559659 6.28457386,37.9561648 4.04829545,37.9561648 C1.81201705,37.9561648 0,35.0559659 0,31.478892 C0,27.9001989 1.81201705,25 4.04829545,25 C6.28457386,25 8.09659091,27.9001989 8.09659091,31.478892" id="Fill-1" fill="#F7DECE"></path>
                <path d="M55.0965909,31.478892 C55.0965909,35.0559659 53.2845739,37.9561648 51.0482955,37.9561648 C48.812017,37.9561648 47,35.0559659 47,31.478892 C47,27.9001989 48.812017,25 51.0482955,25 C53.2845739,25 55.0965909,27.9001989 55.0965909,31.478892" id="Fill-3" fill="#F7DECE"></path>
                <path d="M4,32.9990211 C4,19.1927143 14.1498864,8 26.6704545,8 C39.1910227,8 49.3409091,19.1927143 49.3409091,32.9990211 C49.3409091,46.8037151 39.1910227,56.3787435 26.6704545,56.3787435 C14.1498864,56.3787435 4,46.8037151 4,32.9990211" id="Fill-4" fill="#F7DECE"></path>
                <path d="M17.6193182,35.4772727 C16.7254545,35.4772727 16,34.7534375 16,33.8579545 L16,30.6193182 C16,29.7254545 16.7254545,29 17.6193182,29 C18.5131818,29 19.2386364,29.7254545 19.2386364,30.6193182 L19.2386364,33.8579545 C19.2386364,34.7534375 18.5131818,35.4772727 17.6193182,35.4772727" id="Fill-5" fill="#662113"></path>
                <path d="M36.6193182,35.4772727 C35.7238352,35.4772727 35,34.7534375 35,33.8579545 L35,30.6193182 C35,29.7254545 35.7238352,29 36.6193182,29 C37.5148011,29 38.2386364,29.7254545 38.2386364,30.6193182 L38.2386364,33.8579545 C38.2386364,34.7534375 37.5148011,35.4772727 36.6193182,35.4772727" id="Fill-6" fill="#662113"></path>
                <path d="M27.3362636,47.8575738 C20.554559,47.8575738 17.0422579,46.1394772 16.8965193,46.0682272 C16.0965761,45.6682556 15.7710931,44.6950454 16.1710647,43.8951022 C16.5710363,43.0983977 17.5361499,42.7729147 18.3377124,43.1680284 C18.4202977,43.206892 21.4548999,44.6189374 27.3362636,44.6189374 C33.2710647,44.6189374 36.3072863,43.1809829 36.3380534,43.1647897 C37.1412352,42.774534 38.1079681,43.1097329 38.5014624,43.9064374 C38.8949568,44.7047613 38.5727124,45.6682556 37.7760079,46.0682272 C37.6286499,46.1394772 34.1163488,47.8575738 27.3362636,47.8575738" id="Fill-7" fill="#C1694F"></path>
                <path d="M28.8579545,40.2386364 L25.6193182,40.2386364 C24.7254545,40.2386364 24,39.5148011 24,38.6193182 C24,37.7238352 24.7254545,37 25.6193182,37 L28.8579545,37 C29.7534375,37 30.4772727,37.7238352 30.4772727,38.6193182 C30.4772727,39.5148011 29.7534375,40.2386364 28.8579545,40.2386364" id="Fill-8" fill="#C1694F"></path>
                <path d="M27.2897727,0 C12.3434659,0 3,10.4640341 3,19.1824432 C3,27.9024716 4.86869318,31.3904959 6.73738766,27.9024716 C8.60608084,24.4144602 10.4731547,20.9264489 10.4731547,20.9264489 C10.4731547,20.9264489 16.613608,20.7256534 20.349375,17.237642 C20.349375,17.237642 18.6150852,23.7149148 31.0287784,17.4400568 C31.0287784,17.4400568 30.7599716,23.7149148 39.4346591,17.237642 C39.4346591,17.237642 45.9750852,19.1824432 47.8405398,27.9024716 C48.3603409,30.321733 51.5795455,27.9024716 51.5795455,19.1824432 C51.5795455,10.4640341 44.106392,0 27.2897727,0" id="Fill-9" fill="#8B572A"></path>
            </g>
        </g>
    </g>
</svg>