<?xml version="1.0" encoding="UTF-8" standalone="no"?>
<svg width="26px" height="25px" viewBox="0 0 26 25" version="1.1" xmlns="http://www.w3.org/2000/svg" xmlns:xlink="http://www.w3.org/1999/xlink">
    <!-- Generator: Sketch 3.6 (26304) - http://www.bohemiancoding.com/sketch -->
    <title>Page 1</title>
    <desc>Created with Sketch.</desc>
    <defs></defs>
    <g id="Page-1" stroke="none" stroke-width="1" fill="none" fill-rule="evenodd">
        <g id="Desktop-HD" transform="translate(-515.000000, -226.000000)">
            <g id="Page-1" transform="translate(515.000000, 226.000000)">
                <path d="M23.4702703,0 L1.8972973,0 C0.843243243,0 0,0.833333333 0,1.80555556 L0,23.1944431 C0,24.166666 0.843243243,24.9999974 1.8972973,24.9999974 L23.4702703,24.9999974 C24.5243243,24.9999974 25.3675676,24.1666632 25.3675676,23.1944431 L25.3675676,1.80555556 C25.3675676,0.833333333 24.5243243,0 23.4702703,0 L23.4702703,0 Z" id="Fill-8" fill="#007BB6"></path>
                <path d="M4.28108108,9.90277778 L8.00540541,9.90277778 L8.00540541,21.8472229 L4.28108108,21.8472229 L4.28108108,9.90277778 L4.28108108,9.90277778 Z M6.17837838,4 C7.37297297,4 8.35675676,4.97222222 8.35675676,6.15277778 C8.35675676,7.33333333 7.37297297,8.30555556 6.17837838,8.30555556 C4.98378378,8.30555556 4,7.33333333 4,6.15277778 C4,4.97222222 4.98378378,4 6.17837838,4 L6.17837838,4 Z" id="Fill-9" fill="#FFFFFF"></path>
                <path d="M10,10.3472222 L13.5837838,10.3472222 L13.5837838,11.9444444 L13.6540541,11.9444444 C14.1459459,10.9722222 15.4108108,10 17.2378378,10 C21.0324324,10 21.7351351,12.5 21.7351351,15.6944444 L21.7351351,22.2222222 L18.0108108,22.2222222 L18.0108108,16.3888889 C18.0108108,15 18.0108108,13.1944444 16.0432432,13.1944444 C14.0756757,13.1944444 13.7945946,14.7222222 13.7945946,16.25 L13.7945946,22.1527778 L10.0702703,22.1527778 L10.0702703,10.3472222 L10,10.3472222 Z" id="Fill-10" fill="#FFFFFF"></path>
            </g>
        </g>
    </g>
</svg>