<?xml version="1.0" encoding="UTF-8" standalone="no"?>
<svg width="38px" height="37px" viewBox="0 0 38 37" version="1.1" xmlns="http://www.w3.org/2000/svg" xmlns:xlink="http://www.w3.org/1999/xlink">
    <!-- Generator: Sketch 3.6 (26304) - http://www.bohemiancoding.com/sketch -->
    <title>Page 1</title>
    <desc>Created with Sketch.</desc>
    <defs></defs>
    <g id="Page-1" stroke="none" stroke-width="1" fill="none" fill-rule="evenodd">
        <g id="Desktop-HD" transform="translate(-769.000000, -820.000000)" fill="#4990E2">
            <path d="M805.1095,820.012548 L781.446056,822.74327 C780.406333,822.863603 779.555556,823.817826 779.555556,824.863881 L779.555556,825.072881 L779.555556,829.503048 L779.555556,844.690381 C778.595,844.297714 777.523611,844.072881 776.388889,844.072881 C772.309167,844.072881 769,846.907048 769,850.406212 C769,853.904324 772.309167,856.739544 776.388889,856.739544 C780.468611,856.739544 783.777778,853.90432 783.777778,850.40621 L783.777778,830.918539 L802.777778,828.726159 L802.777778,842.579262 C801.817222,842.186595 800.745833,841.961762 799.611111,841.961762 C795.531389,841.961762 792.222222,844.795928 792.222222,848.295095 C792.222222,851.793209 795.531389,854.628432 799.611111,854.628432 C803.690833,854.628432 807,851.793209 807,848.295095 L807,826.336381 L807,821.697214 C807,820.651159 806.149222,819.892214 805.1095,820.012548" id="Page-1"></path>
        </g>
    </g>
</svg>