<?xml version="1.0" encoding="UTF-8" standalone="no"?>
<svg width="31px" height="37px" viewBox="0 0 31 37" version="1.1" xmlns="http://www.w3.org/2000/svg" xmlns:xlink="http://www.w3.org/1999/xlink">
    <!-- Generator: Sketch 3.6 (26304) - http://www.bohemiancoding.com/sketch -->
    <title>Page 1</title>
    <desc>Created with Sketch.</desc>
    <defs></defs>
    <g id="Page-1" stroke="none" stroke-width="1" fill="none" fill-rule="evenodd">
        <g id="Desktop-HD" transform="translate(-844.000000, -820.000000)" fill="#F684CB">
            <path d="M875,833.777778 C875,826.2 868.8,820 861.222222,820 C853.644444,820 847.444444,826.2 847.444444,833.777778 L844.114815,841.355556 L844.114815,841.355556 C844,841.47037 844,841.585185 844,841.814815 C844,842.503704 844.459259,842.962963 845.148148,842.962963 L847.444444,842.962963 L847.444444,846.407407 C847.444444,849.622221 849.97037,852.148148 853.185185,852.148148 C853.52963,852.148148 853.988889,852.148148 854.333333,852.033333 L854.333333,856.740741 L869.259259,856.740741 L869.259259,844.914815 C872.703704,842.503704 875,838.37037 875,833.777778 L875,833.777778 Z M852.611111,832.62963 C853.52963,832.62963 854.333333,833.433333 854.333333,834.351852 C854.333333,835.27037 853.52963,836.074074 852.611111,836.074074 C851.692593,836.074074 850.888889,835.27037 850.888889,834.351852 C850.888889,833.433333 851.692593,832.62963 852.611111,832.62963 L852.611111,832.62963 Z M865.92963,834.581481 L865.92963,834.581481 C865.92963,834.581481 864.896296,831.251852 862.140741,830.562963 C860.533333,830.103704 856.62963,831.481481 856.62963,831.481481 L856.62963,831.481481 C856.285185,831.596296 855.825926,831.711111 855.481481,831.711111 C853.52963,831.711111 852.037037,830.218519 852.037037,828.266667 C852.037037,827.462963 852.381481,826.659259 852.840741,826.085185 C852.955556,825.97037 853.07037,825.855556 853.185185,825.740741 C855.137037,823.559259 858.007407,822.296296 861.222222,822.296296 C867.537037,822.296296 872.588889,827.348148 872.703704,833.548148 L872.703704,833.662963 C872.703704,835.5 871.211111,837.107407 869.259259,837.107407 C867.651852,837.107407 866.274074,836.074074 865.92963,834.581481 L865.92963,834.581481 Z" id="Page-1"></path>
        </g>
    </g>
</svg>