<?xml version="1.0" encoding="UTF-8" standalone="no"?>
<svg width="31px" height="28px" viewBox="0 0 31 28" version="1.1" xmlns="http://www.w3.org/2000/svg" xmlns:xlink="http://www.w3.org/1999/xlink">
    <!-- Generator: Sketch 3.6 (26304) - http://www.bohemiancoding.com/sketch -->
    <title>Page 1</title>
    <desc>Created with Sketch.</desc>
    <defs></defs>
    <g id="Page-1" stroke="none" stroke-width="1" fill="none" fill-rule="evenodd">
        <g id="Desktop-HD" transform="translate(-581.000000, -224.000000)">
            <g id="Page-1" transform="translate(581.000000, 224.000000)">
                <path d="M12.5331613,21.72742 C14.9538065,20.31742 18.2406882,18.55492 21.0484301,15.83492 C27.0957419,9.97658667 31.9981075,1.69242 30.7809032,0.51408 C29.5645591,-0.664253333 21.0131613,4.08492 14.9667097,9.94242 C12.1581075,12.6624133 10.3396129,15.8465867 8.88326882,18.1915867 L12.5331613,21.72742 L12.5331613,21.72742 Z" id="Fill-1" fill="#3B88C3"></path>
                <path d="M0.367913978,27.6200833 C0.367913978,27.6200833 6.45049462,28.7984167 10.7085557,24.6734167 C12.5330787,22.9059167 12.5330787,20.5492533 12.5330787,20.5492533 L10.0995234,18.1917533 C10.0995234,18.1917533 7.05866323,18.7817533 5.84232258,19.9600867 C4.62597849,21.13842 3.67630108,23.48675 3.35802151,24.62425 C2.77565591,26.7100833 0.367913978,27.6200833 0.367913978,27.6200833" id="Fill-3" fill="#C1694F"></path>
                <path d="M15.3821935,19.77342 L10.9366022,15.4667467 C10.6002581,15.14092 10.1125161,15.1950867 9.84498925,15.5875867 L8.87810753,17.00842 C8.61058065,17.4000867 8.64498925,17.9600867 8.95294624,18.2592533 L12.4987527,21.6950867 C12.8075699,21.99342 13.3856344,22.0259173 13.7907957,21.7675867 L15.2574624,20.83092 C15.6626237,20.5717533 15.7185376,20.0992533 15.3821935,19.77342" id="Fill-4" fill="#CCD6DD"></path>
                <path d="M9.65935484,25.5498333 C8.63483871,26.1906667 8.08860215,25.6565 8.27526882,25.0423333 C8.46537634,24.4165 8.17204301,23.669 7.2111828,23.864 C6.25032258,24.0581667 5.61376344,23.569 5.91827957,22.3906667 C6.21763441,21.2298333 4.98408602,20.8381667 4.40860215,22.0281667 C3.90795699,22.9956667 3.53376344,23.9948333 3.35827957,24.6248333 C2.77591398,26.7106667 0.368172456,27.6198333 0.368172456,27.6198333 C0.368172456,27.6198333 5.51913978,28.6073334 9.65935484,25.5498333" id="Fill-5" fill="#A0041E"></path>
            </g>
        </g>
    </g>
</svg>