<?xml version="1.0" encoding="UTF-8" standalone="no"?>
<svg width="32px" height="29px" viewBox="0 0 32 29" version="1.1" xmlns="http://www.w3.org/2000/svg" xmlns:xlink="http://www.w3.org/1999/xlink">
    <!-- Generator: Sketch 3.6 (26304) - http://www.bohemiancoding.com/sketch -->
    <title>CV</title>
    <desc>Created with Sketch.</desc>
    <defs></defs>
    <g id="Page-1" stroke="none" stroke-width="1" fill="none" fill-rule="evenodd">
        <g id="Desktop-HD" transform="translate(-655.000000, -224.000000)">
            <g id="CV" transform="translate(655.000000, 224.000000)">
                <path d="M27.5555556,0 L8.61111111,0 C6.70891667,0 5.16666667,1.44275 5.16666667,3.22222222 L5.16666667,22.5555556 L3.44444444,22.5555556 C1.54225,22.5555556 0,23.9983056 0,25.7777778 C0,27.55725 1.54225,29 3.44444444,29 L24.1111111,29 C26.0133056,29 27.5555556,27.55725 27.5555556,25.7777778 L27.5555556,6.44444444 C29.45775,6.44444444 31,5.00169444 31,3.22222222 C31,1.44275 29.45775,0 27.5555556,0" id="Fill-1" fill="#FFD983"></path>
                <path d="M6.88888889,8.05555556 L27.5555556,8.05555556 L27.5555556,6.44444444 L8.61111111,6.44444444 L6.88888889,5.63888889 L6.88888889,8.05555556 L6.88888889,8.05555556 Z" id="Fill-3" fill="#E39F3D"></path>
                <path d="M8.61111111,0 C6.70891667,0 5.16666667,1.44275 5.16666667,3.22222222 L5.16666667,23.0026389 C4.65861111,22.7255284 4.07477778,22.5555556 3.44444444,22.5555556 C1.54225,22.5555556 0,23.9983056 0,25.7777778 C0,27.55725 1.54225,29 3.44444444,29 C5.34663889,29 6.88888889,27.55725 6.88888889,25.7777778 L6.88888889,5.99736111 C7.39694444,6.27447222 7.98077778,6.44444444 8.61111111,6.44444444 C10.5133056,6.44444444 12.0555556,5.00169444 12.0555556,3.22222222 C12.0555556,1.44275 10.5133056,0 8.61111111,0" id="Fill-4" fill="#FFE8B6"></path>
                <path d="M10.3333333,3.22222222 C10.3333333,4.11155556 9.56177778,4.83333333 8.61111111,4.83333333 C7.66044444,4.83333333 6.88888889,4.11155556 6.88888889,3.22222222 C6.88888889,2.33288889 7.66044444,1.61111111 8.61111111,1.61111111 C9.56177778,1.61111111 10.3333333,2.33288889 10.3333333,3.22222222" id="Fill-5" fill="#C1694F"></path>
                <path d="M5.16666667,25.7777778 C5.16666667,26.6671111 4.39511111,27.3888889 3.44444444,27.3888889 C2.49377778,27.3888889 1.72222222,26.6671111 1.72222222,25.7777778 C1.72222222,24.8884444 2.49377778,24.1666667 3.44444444,24.1666667 C4.39511111,24.1666667 5.16666667,24.8884444 5.16666667,25.7777778" id="Fill-6" fill="#C1694F"></path>
                <text font-family="Avenir-Black, Avenir" font-size="20" font-weight="700" fill="#E39F3D">
                    <tspan x="4" y="24">CV</tspan>
                </text>
            </g>
        </g>
    </g>
</svg>