<?xml version="1.0" encoding="UTF-8" standalone="no"?>
<svg width="56px" height="53px" viewBox="0 0 56 53" version="1.1" xmlns="http://www.w3.org/2000/svg" xmlns:xlink="http://www.w3.org/1999/xlink">
    <!-- Generator: Sketch 3.6 (26304) - http://www.bohemiancoding.com/sketch -->
    <title>Page 1</title>
    <desc>Created with Sketch.</desc>
    <defs></defs>
    <g id="Page-1" stroke="none" stroke-width="1" fill="none" fill-rule="evenodd">
        <g id="Desktop-HD" transform="translate(-861.000000, -486.000000)">
            <g id="Page-1" transform="translate(861.000000, 486.000000)">
                <path d="M47.9736002,51.490619 C49.8702856,53.3731211 52.8877397,53.4619184 54.6770655,51.685973 C56.4663913,49.9100276 56.376925,46.9151379 54.4802397,45.0326358 L19.0873745,9.9044427 C17.1906891,8.0219406 14.1732351,7.93313041 12.383904,9.70908871 C10.5945782,11.4850341 10.6840445,14.4799238 12.5807351,16.3624259 L47.9736002,51.490619 L47.9736002,51.490619 Z" id="Fill-1" fill="#F6A623"></path>
                <path d="M35.1573034,1.63676471 C35.1573034,1.63676471 25.3973442,-3.20672269 17.2640449,4.8657563 L5.87742594,16.1672269 C5.87742594,16.1672269 4.25076609,14.5527311 2.62410623,16.1672269 L0.997446374,17.7817227 C0.997446374,17.7817227 -0.629213483,19.3962185 0.997446374,21.0107143 L7.5040858,27.4686975 C7.5040858,27.4686975 9.13074566,29.0831933 10.7574055,27.4686975 L12.3840654,25.8542017 C12.3840654,25.8542017 14.0107252,24.2397059 12.3840654,22.6252101 C12.3466522,22.5880767 12.2978511,22.5396418 12.2571859,22.4992794 C13.509714,21.299709 15.3852528,20.0775357 17.2640449,21.0107143 L23.7706844,14.5527311 C23.7706844,14.5527311 22.1440245,9.7092437 25.3973442,6.4802521 C28.6506639,3.2512605 30.2773238,3.2512605 33.5306435,3.2512605 C36.7839632,3.2512605 35.1573034,1.63676471 35.1573034,1.63676471" id="Fill-3" fill="#66757F"></path>
            </g>
        </g>
    </g>
</svg>