<?xml version="1.0" encoding="UTF-8" standalone="no"?>
<svg width="23px" height="20px" viewBox="0 0 23 20" version="1.1" xmlns="http://www.w3.org/2000/svg" xmlns:xlink="http://www.w3.org/1999/xlink">
    <!-- Generator: Sketch 3.6 (26304) - http://www.bohemiancoding.com/sketch -->
    <title>Page 1</title>
    <desc>Created with Sketch.</desc>
    <defs>
        <path id="path-1" d="M0,19.8625981 L22.3445752,19.8625981 L22.3445752,0 L0,0 L0,19.8625981 L0,19.8625981 Z"></path>
    </defs>
    <g id="Page-1" stroke="none" stroke-width="1" fill="none" fill-rule="evenodd">
        <g id="Desktop-HD" transform="translate(-841.000000, -229.000000)">
            <g id="Page-1" transform="translate(841.000000, 229.000000)">
                <mask id="mask-2" fill="white">
                    <use xlink:href="#path-1"></use>
                </mask>
                <g id="Clip-2"></g>
                <path d="M22.3762995,2.35295737 C21.5496812,2.7555597 20.6657691,3.0239553 19.7409329,3.14025886 C20.6903236,2.52294363 21.4187322,1.53881452 21.7624703,0.366813872 C20.8703816,0.939393523 19.8882516,1.35988114 18.8406593,1.5835501 C18.005848,0.608368116 16.8109288,0 15.4932537,0 C12.9560968,0 10.90182,2.24560092 10.90182,5.0190459 C10.90182,5.41270113 10.9427441,5.79740923 11.0245842,6.16421415 C7.20248734,5.94950126 3.82234488,3.9544017 1.55527574,0.92149929 C1.16242537,1.66407415 0.933263334,2.52294363 0.933263334,3.44444292 C0.933263334,5.18903217 1.7435161,6.71890852 2.97935526,7.62251358 C2.22639301,7.59567223 1.52253807,7.37201222 0.900526485,6.99625123 L0.900526485,7.05888104 C0.900526485,9.49235351 2.4801087,11.5142908 4.58349032,11.979514 C4.19882559,12.0958203 3.78960721,12.1584465 3.37220481,12.1584465 C3.07756745,12.1584465 2.7911149,12.1226607 2.50466154,12.0689807 C3.08575145,14.0640758 4.78809951,15.5134263 6.79326977,15.5581592 C5.22187074,16.9001515 3.24125496,17.7053463 1.08876684,17.7053463 C0.720470297,17.7053463 0.352173831,17.6785068 -0.00793822708,17.6337739 C2.02178463,19.0562848 4.43617245,19.8883197 7.03061581,19.8883197 C15.476884,19.8883197 20.092864,12.2389652 20.092864,5.60952874 C20.092864,5.39480689 20.0846792,5.17113793 20.0764944,4.95642504 C20.984961,4.24069153 21.7624703,3.3549807 22.3762995,2.35295737 L22.3762995,2.35295737 Z" id="Fill-1" fill="#000000" mask="url(#mask-2)"></path>
            </g>
        </g>
    </g>
</svg>