<svg width="210" height="92" viewBox="0 0 210 92" fill="none" xmlns="http://www.w3.org/2000/svg">
<path d="M276.218 90.653C276.855 89.4279 276.378 87.9185 275.153 87.2817L255.189 76.905C253.964 76.2682 252.454 76.7452 251.817 77.9703C251.181 79.1954 251.658 80.7047 252.883 81.3415L270.629 90.5653L261.405 108.311C260.768 109.536 261.245 111.046 262.47 111.683C263.695 112.319 265.205 111.842 265.841 110.617L276.218 90.653ZM-2.5 -8.96532e-07C-2.50001 30.26 1.06088 74.3875 38.2608 100.24C75.3566 126.021 144.899 132.917 274.753 91.8838L273.247 87.1162C143.601 128.083 76.1434 120.479 41.1142 96.1346C6.1891 71.8625 2.49999 30.24 2.5 8.96532e-07L-2.5 -8.96532e-07Z" transform="translate(2.25 0.375) scale(0.75)" fill="#0A1AAE"/>
</svg>
