<svg width="62" height="62" viewBox="0 0 62 62" fill="none" xmlns="http://www.w3.org/2000/svg">
<path d="M49.6 24.8C49.6 11.1035 38.4965 0 24.8 0C11.1035 0 0 11.1035 0 24.8C0 38.4965 11.1035 49.6 24.8 49.6C38.4965 49.6 49.6 38.4965 49.6 24.8Z" transform="translate(0 62) scale(1.25 -1.25)" fill="#88C9F9"/>
<path d="M0.0703658 38.3841C-0.551012 42.421 3.09459 44.1102 5.04001 44.5414C6.98543 44.9754 8.86472 45.397 9.08103 44.5345C9.29597 43.6693 9.50952 42.5216 10.6972 42.9528C11.8848 43.3855 14.8897 43.723 16.2951 44.8018C17.699 45.8806 19.3868 45.8861 20.7921 45.4535C22.1961 45.0223 26.1338 45.1407 25.2699 43.8456C24.4061 42.5491 22.7555 42.7062 21.893 41.1948C21.0291 39.6806 22.13 38.679 23.3176 38.679C24.5094 38.679 25.6722 38.493 26.43 39.6806C27.1864 40.8696 25.9037 43.0741 26.8778 42.928C27.8505 42.782 28.9128 41.7349 29.6747 40.1132C30.4283 38.493 31.6146 39.4657 32.0486 38.493C32.4798 37.5216 34.8593 35.6837 33.6702 36.0075C32.4798 36.3326 31.2922 36.5475 30.9684 35.3599C30.6433 34.1709 31.5044 32.9819 30.6433 33.0907C29.7794 33.1995 29.457 32.9681 28.2666 33.0852C27.0789 33.1995 26.43 33.9546 25.4573 32.3343C24.486 30.7154 23.7296 29.6325 23.2983 28.8775C22.8643 28.1211 22.2168 27.6912 22.5405 26.177C22.8643 24.6628 21.6753 25.0955 21.6753 26.3919C21.6753 27.6871 20.9203 27.9047 19.9489 27.6898C18.9762 27.4735 17.4648 27.2586 17.5737 26.177C17.6797 25.0968 17.1397 23.8003 18.0049 22.9365C18.8688 22.0699 19.8373 23.0412 20.3788 22.7188C20.9203 22.3923 22.4799 22.6871 21.9398 22.1456C21.3984 21.6069 19.5149 20.9318 20.5951 20.0666C21.6781 19.2041 22.7693 18.9244 23.2033 18.8169C23.6345 18.7067 23.2887 19.8833 24.6954 20.4234C26.0966 20.9635 28.2886 22.2007 28.8287 21.228C29.3674 20.2567 29.2944 20.4083 31.2398 20.1947C33.1825 19.9798 33.7061 19.3887 34.5699 17.5535C35.4324 15.7169 35.1844 15.9112 36.5842 15.3752C37.9909 14.8338 38.8961 15.0694 37.5997 13.879C36.3032 12.6941 35.3249 12.7575 34.5699 11.3535C33.8121 9.9523 34.3591 8.96857 32.8477 7.56461C31.3349 6.16066 29.7587 4.9799 28.1398 4.00581C27.2884 3.49603 25.1611 1.15381 23.8921 0.331279C22.7431 -0.414099 22.4 0.331279 22.4 0.331279C22.4 0.331279 22.7527 2.62803 23.7282 3.59937C24.6981 4.5707 25.2506 8.20666 24.9255 9.28684C24.6031 10.3656 23.0517 10.6922 22.5144 11.1234C21.9743 11.5533 20.5621 13.2562 20.5621 14.3391C20.5621 15.4193 22.9181 18.2093 22.9181 18.2093C23.2184 16.7103 21.4865 18.6626 20.6764 18.9313C20.0289 19.1476 18.5519 21.2129 17.2885 21.4306C16.0264 21.6496 15.4105 22.395 14.4392 23.1528C13.4665 23.9092 11.0898 24.988 11.1973 26.177C11.3061 27.3647 8.82063 28.3374 8.38939 28.3374C7.95677 28.3374 6.98543 28.3374 6.12019 29.8502C5.25632 31.363 3.74352 32.8758 4.17614 33.9546C4.60739 35.0347 4.71623 36.334 4.49854 37.5216C4.28361 38.7093 2.66334 39.1419 2.33957 38.8181C2.01579 38.493 0.288055 36.9788 0.0703658 38.3841Z" transform="translate(6.15921 60.1182) scale(1.25 -1.25)" fill="#5C913B"/>
</svg>
