<svg width="49" height="49" viewBox="0 0 49 49" fill="none" xmlns="http://www.w3.org/2000/svg">
<path fill-rule="evenodd" clip-rule="evenodd" d="M80 40C80 62.0914 62.0914 80 40 80C17.9086 80 0 62.0914 0 40C0 17.9086 17.9086 0 40 0C62.0914 0 80 17.9086 80 40ZM40 68.5714C55.7796 68.5714 68.5714 55.7796 68.5714 40C68.5714 24.2204 55.7796 11.4286 40 11.4286C24.2204 11.4286 11.4286 24.2204 11.4286 40C11.4286 55.7796 24.2204 68.5714 40 68.5714Z" transform="scale(0.6)" fill="#0A1AAE"/>
<path d="M38.0952 19.0476C38.0952 29.5673 29.5673 38.0952 19.0476 38.0952C8.52791 38.0952 0 29.5673 0 19.0476C0 8.52791 8.52791 0 19.0476 0C29.5673 0 38.0952 8.52791 38.0952 19.0476Z" transform="translate(12.5713 12.5716) scale(0.6)" fill="#0A1AAE"/>
</svg>
