<svg width="165" height="165" viewBox="0 0 165 165" fill="none" xmlns="http://www.w3.org/2000/svg">
<path d="M218.5 110C218.5 169.923 169.923 218.5 110 218.5C50.0771 218.5 1.5 169.923 1.5 110C1.5 50.0771 50.0771 1.5 110 1.5C169.923 1.5 218.5 50.0771 218.5 110ZM110 190.071C154.222 190.071 190.071 154.222 190.071 110C190.071 65.7778 154.222 29.9286 110 29.9286C65.7778 29.9286 29.9286 65.7778 29.9286 110C29.9286 154.222 65.7778 190.071 110 190.071Z" transform="scale(0.75)" fill="#FFF27C" stroke="#0A1AAE" stroke-width="3"/>
<path d="M103.262 52.381C103.262 80.4817 80.4817 103.262 52.381 103.262C24.2802 103.262 1.5 80.4817 1.5 52.381C1.5 24.2802 24.2802 1.5 52.381 1.5C80.4817 1.5 103.262 24.2802 103.262 52.381Z" transform="translate(43.2144 43.2144) scale(0.75)" fill="#FFF27C" stroke="#0A1AAE" stroke-width="3"/>
</svg>
