<svg width="100" height="98" viewBox="0 0 100 98" fill="none" xmlns="http://www.w3.org/2000/svg">
<path d="M11.5898 8.91841C11.5898 3.99322 8.99598 0 5.79489 0C2.59379 0 0 3.99322 0 8.91841C0 13.8458 2.59379 17.8391 5.79489 17.8391C8.99598 17.8391 11.5898 13.8458 11.5898 8.91841Z" transform="translate(0.970093 66.5755) scale(1.25 -1.25)" fill="#FFC09D"/>
<path d="M11.5898 8.91841C11.5898 3.99322 8.99598 0 5.79489 0C2.59379 0 0 3.99322 0 8.91841C0 13.8458 2.59379 17.8391 5.79489 17.8391C8.99598 17.8391 11.5898 13.8458 11.5898 8.91841Z" transform="translate(84.9957 66.5755) scale(1.25 -1.25)" fill="#FFC09D"/>
<path d="M0 32.191C0 51.2006 14.5289 66.6116 32.4514 66.6116C50.3738 66.6116 64.9027 51.2006 64.9027 32.191C64.9027 13.1836 50.3738 6.12379e-07 32.4514 6.12379e-07C14.5289 6.12379e-07 0 13.1836 0 32.191Z" transform="translate(9.66199 97.2339) scale(1.25 -1.25)" fill="#FFC09D"/>
<path d="M2.31796 0C1.03844 0 0 0.996633 0 2.2296V6.68881C0 7.91955 1.03844 8.91841 2.31796 8.91841C3.59747 8.91841 4.63591 7.91955 4.63591 6.68881V2.2296C4.63591 0.996633 3.59747 0 2.31796 0Z" transform="translate(29.9442 61.0014) scale(1.25 -1.25)" fill="#662113"/>
<path d="M2.31796 0C1.03613 0 0 0.996633 0 2.2296V6.68881C0 7.91955 1.03613 8.91841 2.31796 8.91841C3.59978 8.91841 4.63591 7.91955 4.63591 6.68881V2.2296C4.63591 0.996633 3.59978 0 2.31796 0Z" transform="translate(64.7135 61.0014) scale(1.25 -1.25)" fill="#662113"/>
<path d="M16.2272 0C6.51957 0 1.49193 2.36561 1.28331 2.46371C0.138243 3.01442 -0.327666 4.35442 0.244869 5.45584C0.817404 6.5528 2.1989 7.00095 3.34629 6.45693C3.46451 6.40342 7.80836 4.45921 16.2272 4.45921C24.7225 4.45921 29.0686 6.43909 29.1127 6.46139C30.2624 6.99872 31.6462 6.5372 32.2095 5.44023C32.7727 4.34104 32.3115 3.01442 31.171 2.46371C30.9601 2.36561 25.9324 0 16.2272 0Z" transform="translate(29.9425 83.2975) scale(1.25 -1.25)" fill="#C1694F"/>
<path d="M6.95387 0H2.31796C1.03844 0 0 0.996633 0 2.2296C0 3.46257 1.03844 4.45921 2.31796 4.45921H6.95387C8.23569 4.45921 9.27182 3.46257 9.27182 2.2296C9.27182 0.996633 8.23569 0 6.95387 0Z" transform="translate(44.4313 69.3625) scale(1.25 -1.25)" fill="#C1694F"/>
<path d="M34.7693 40.2587C13.3746 40.2587 0 25.851 0 13.8468C0 1.84036 2.67492 -2.96221 5.34984 1.84036C8.02476 6.64292 10.6974 11.4455 10.6974 11.4455C10.6974 11.4455 19.487 11.722 24.8346 16.5245C24.8346 16.5245 22.352 7.60611 40.1215 16.2458C40.1215 16.2458 39.7367 7.60611 52.154 16.5245C52.154 16.5245 61.5162 13.8468 64.1865 1.84036C64.9305 -1.49067 69.5386 1.84036 69.5386 13.8468C69.5386 25.851 58.8413 40.2587 34.7693 40.2587Z" transform="translate(6.76526 50.9987) scale(1.25 -1.25)" fill="#814C1D"/>
</svg>
