<svg width="332" height="89" viewBox="0 0 332 89" fill="none" xmlns="http://www.w3.org/2000/svg">
<path d="M51.2435 10.4547C53.0478 10.4547 54.6717 9.01365 54.6717 7.03218C54.6717 5.23084 53.2283 3.60964 51.2435 3.60964C49.4391 3.60964 47.8152 5.05071 47.8152 7.03218C47.8152 9.01365 49.2587 10.4547 51.2435 10.4547ZM51.2435 78.3651C49.4391 78.3651 47.8152 79.8062 47.8152 81.7877C47.8152 83.589 49.2587 85.2102 51.2435 85.2102C53.0478 85.2102 54.6717 83.7692 54.6717 81.7877C54.6717 79.9863 53.0478 78.3651 51.2435 78.3651ZM19.6674 59.8114C18.7652 59.6312 17.863 59.6312 17.1413 60.1716C16.4196 60.712 15.8783 61.4326 15.5174 62.1531C15.337 63.0538 15.337 63.9544 15.8783 64.675C16.6 65.7558 17.6826 66.2962 18.7652 66.2962C19.3065 66.2962 19.8478 66.116 20.3891 65.7558C21.1109 65.2154 21.8326 64.4948 22.013 63.7743C22.1935 62.8736 22.1935 61.973 21.6522 61.2524C21.2913 60.5319 20.5696 59.9915 19.6674 59.8114ZM84.4435 22.5237C83.5413 22.3435 82.6391 22.3435 81.9174 22.884C80.2935 23.7846 79.7522 25.9462 80.6544 27.5674C81.1957 28.288 81.9174 28.8284 82.6391 29.1886C83 29.1886 83.1804 29.3688 83.5413 29.3688C84.0826 29.3688 84.6239 29.1886 85.1652 28.8284C85.887 28.288 86.6087 27.5674 86.7891 26.8469C86.9696 25.9462 86.9696 25.0456 86.4283 24.325C86.0674 23.2442 85.3456 22.7038 84.4435 22.5237ZM85.3456 60.1716C84.6239 59.6312 83.7217 59.6312 82.8196 59.8114C82.2783 59.9915 81.737 60.3518 81.3761 60.712L75.2413 57.1094C75.6022 56.2087 75.6022 55.308 75.4217 54.4074C75.0609 53.1464 74.3391 52.2458 73.2565 51.5252C70.9109 50.2643 68.0239 50.9848 66.7609 53.3266C66.0391 54.4074 66.0391 55.6683 66.2196 56.9292C66.2196 57.1094 66.2196 57.1094 66.4 57.2895L55.0326 63.7743C54.1304 62.6935 52.8674 62.1531 51.4239 62.1531C49.9804 62.1531 48.7174 62.8736 47.8152 63.7743L36.4478 57.2895C36.4478 57.1094 36.4478 57.1094 36.6283 56.9292C36.9891 55.6683 36.8087 54.4074 36.087 53.3266C35.3652 52.2458 34.463 51.5252 33.2 51.165C33.0196 51.165 33.0196 51.165 32.8391 51.165V38.0152C33.0196 38.0152 33.0196 38.0152 33.2 38.0152C34.463 37.6549 35.3652 36.9344 36.087 35.8536C36.8087 34.7728 36.8087 33.5118 36.6283 32.2509C36.6283 32.0708 36.6283 32.0708 36.4478 31.8906L47.8152 25.4058C48.7174 26.4866 49.9804 27.027 51.4239 27.027C54.1304 27.027 56.1152 24.8654 56.1152 22.3435C56.1152 19.8217 53.95 17.6601 51.4239 17.6601C48.8978 17.6601 46.7326 19.8217 46.7326 22.3435C46.7326 22.884 46.913 23.4244 47.0935 23.9648L35.7261 30.4496C35.3652 30.0893 35.0043 29.729 34.463 29.3688C33.3804 28.6482 32.1174 28.6482 30.8543 28.8284C29.5913 29.1886 28.6891 29.9092 27.9674 30.99C26.7043 33.3317 27.4261 36.2138 29.7717 37.4748C30.313 37.6549 30.6739 37.8351 31.2152 38.0152V51.165C30.6739 51.3451 30.1326 51.3451 29.7717 51.7053C28.6891 52.4259 27.9674 53.3266 27.6065 54.5875C27.2457 55.8484 27.4261 57.1094 28.1478 58.1902C28.8696 59.271 29.7717 59.9915 31.0348 60.3518C31.3957 60.5319 31.937 60.5319 32.2978 60.5319C33.2 60.5319 33.9217 60.3518 34.6435 59.8114C35.1848 59.6312 35.5457 59.271 35.9065 58.7306L47.2739 65.2154C47.0935 65.7558 46.913 66.2962 46.913 66.8366C46.913 69.5386 49.0783 71.5201 51.6043 71.5201C54.1304 71.5201 56.2957 69.3585 56.2957 66.8366C56.2957 66.2962 56.1152 65.7558 55.9348 65.2154L67.3022 58.7306C67.663 59.0908 68.0239 59.4511 68.5652 59.8114C69.287 60.1716 70.1891 60.5319 70.9109 60.5319C72.1739 60.5319 73.6174 59.9915 74.5196 58.9107L80.6544 62.5134C80.4739 63.0538 80.4739 63.5942 80.6544 64.3147C80.8348 65.2154 81.3761 65.9359 82.2783 66.2962C82.8196 66.6564 83.3609 66.8366 83.9022 66.8366C84.263 66.8366 84.4435 66.8366 84.8043 66.6564C85.7065 66.4763 86.4283 65.9359 86.7891 65.0352C87.3304 64.3147 87.3304 63.414 87.15 62.5134C86.6087 61.4326 86.0674 60.5319 85.3456 60.1716ZM17.1413 28.6482C17.6826 29.0085 18.2239 29.1886 18.7652 29.1886C19.1261 29.1886 19.3065 29.1886 19.6674 29.0085C20.5696 28.8284 21.2913 28.288 21.6522 27.3873C22.5543 25.7661 22.013 23.6045 20.3891 22.7038C18.7652 21.8031 16.6 22.3435 15.6978 23.9648C15.1565 24.6853 15.1565 25.586 15.337 26.4866C15.6978 27.5674 16.2391 28.288 17.1413 28.6482ZM28.3283 4.87058C29.5913 4.15004 29.9522 2.52884 29.2304 1.2679C28.5087 0.00696615 26.8848 -0.353301 25.6217 0.367234C24.3587 1.08777 23.9978 2.70897 24.7196 3.96991C25.4413 5.05071 27.0652 5.59111 28.3283 4.87058ZM74.1587 84.1294C72.8956 84.85 72.5348 86.4712 73.2565 87.7321C73.9783 88.993 75.6022 89.3533 76.8652 88.6328C78.1283 87.9122 78.4891 86.291 77.7674 85.0301C77.0456 83.7691 75.4217 83.4089 74.1587 84.1294ZM28.3283 84.1294C27.0652 83.4089 25.4413 83.7691 24.7196 85.0301C23.9978 86.291 24.3587 87.9122 25.6217 88.6328C26.8848 89.3533 28.5087 88.993 29.2304 87.7321C29.9522 86.4712 29.5913 84.85 28.3283 84.1294ZM74.1587 4.87058C75.4217 5.59111 77.0456 5.23084 77.7674 3.96991C78.4891 2.70897 78.1283 1.08777 76.8652 0.367234C75.6022 -0.353301 73.9783 0.00696615 73.2565 1.2679C72.3543 2.3487 72.8956 3.96991 74.1587 4.87058ZM99.7804 41.798C98.337 41.798 97.0739 43.0589 97.0739 44.5C97.0739 45.9411 98.337 47.202 99.7804 47.202C101.224 47.202 102.487 45.9411 102.487 44.5C102.307 43.0589 101.224 41.798 99.7804 41.798ZM2.70652 41.798C1.26304 41.798 0 43.0589 0 44.5C0 45.9411 1.26304 47.202 2.70652 47.202C4.15 47.202 5.41304 45.9411 5.41304 44.5C5.23261 43.0589 4.15 41.798 2.70652 41.798ZM70.55 38.0152C71.2717 38.0152 72.1739 37.8351 72.8957 37.2947C75.2413 36.0337 75.963 33.1516 74.7 30.8098C73.437 28.4681 70.55 27.7476 68.2043 29.0085C67.1217 29.729 66.4 30.6297 66.0391 31.8906C65.6783 33.1516 65.8587 34.4125 66.5804 35.4933C67.3022 37.1145 68.9261 38.0152 70.55 38.0152Z" fill="#0A1AAE"/>
<path d="M34.2826 25.3989C35.3652 23.0571 35.7261 20.7154 35.7261 17.8332C35.7261 12.6094 33.9217 8.46628 30.4935 5.04374C27.0652 1.6212 22.9152 0 17.863 0C12.8109 0 8.66087 1.6212 5.23261 5.04374C1.80435 8.46628 0 12.6094 0 17.8332C0 23.0571 1.80435 27.2002 5.23261 30.6227C8.66087 34.0453 12.8109 35.6665 17.863 35.6665C22.7348 35.6665 26.7043 34.0453 30.1326 30.983L34.8239 34.0453L38.7935 28.1009L34.2826 25.3989ZM28.1478 21.4359L23.9978 18.7339L20.0283 24.6783L24.1783 27.3803C22.3739 28.6413 20.3891 29.3618 17.863 29.3618C14.6152 29.3618 12.0891 28.281 10.1043 26.2995C8.11956 24.1379 7.21739 21.4359 7.21739 18.0134C7.21739 14.5908 8.11956 11.8888 10.1043 9.72722C12.0891 7.56562 14.6152 6.66495 17.863 6.66495C21.1109 6.66495 23.6369 7.74575 25.6217 9.72722C27.6065 11.7087 28.5087 14.5908 28.5087 18.0134C28.5087 19.0942 28.3283 20.3551 28.1478 21.4359ZM66.2196 22.877C66.2196 25.0386 65.6783 26.6598 64.5956 27.9207C63.513 29.0015 61.8891 29.7221 60.0848 29.7221C58.2804 29.7221 56.6565 29.1817 55.5739 27.9207C54.4913 26.8399 53.95 25.0386 53.95 22.877V7.56562H46.913V23.7777C46.913 27.3803 47.9956 30.4426 49.9804 32.4241C51.9652 34.5857 54.4913 35.4863 57.7391 35.4863C61.7087 35.4863 64.2348 34.7658 66.4 32.4241V35.1261H73.4369V7.74575H66.4V22.877H66.2196ZM140.378 7.74575C136.409 7.74575 133.883 8.46629 131.717 10.808V8.10602H124.68V35.8466H131.717V20.5352C131.717 18.3736 132.259 16.7524 133.341 15.4915C134.424 14.4107 136.048 13.6902 137.852 13.6902C139.837 13.6902 141.28 14.2306 142.363 15.4915C143.446 16.5723 143.987 18.3736 143.987 20.5352V35.8466H151.024V19.6346C151.024 16.0319 149.941 12.9696 147.957 10.9882C145.972 8.82655 143.446 7.74575 140.378 7.74575ZM105.193 7.74575V10.4478C103.75 9.00669 100.322 7.38548 96.5326 7.38548C92.7435 7.38548 89.6761 8.64642 87.15 11.3484C84.6239 14.0504 83.3609 17.473 83.3609 21.616C83.3609 25.7591 84.6239 29.1817 87.15 31.8837C89.6761 34.5857 92.7435 35.8466 96.5326 35.8466C98.8783 35.8466 101.946 35.4864 105.193 32.9645V35.4863H112.23V7.74575H105.193ZM103.028 27.5605C101.585 29.0015 99.7804 29.7221 97.9761 29.7221C95.9913 29.7221 94.3674 29.0015 92.9239 27.5605C91.4804 26.1194 90.7587 24.1379 90.7587 21.616C90.7587 19.0942 91.4804 17.1127 92.9239 15.6716C94.3674 14.2306 96.1717 13.51 97.9761 13.51C99.9609 13.51 101.585 14.2306 103.209 15.6716C104.652 17.1127 105.374 19.0942 105.374 21.616C105.193 24.1379 104.472 26.1194 103.028 27.5605ZM204.974 7.74575V10.4478C203.53 9.00669 200.102 7.38548 196.313 7.38548C192.524 7.38548 189.457 8.64642 186.93 11.3484C184.404 14.0504 183.141 17.473 183.141 21.616C183.141 25.7591 184.404 29.1817 186.93 31.8837C189.457 34.5857 192.524 35.8466 196.313 35.8466C198.659 35.8466 201.726 35.4864 204.974 32.9645V35.4863H212.011V7.74575H204.974ZM202.809 27.5605C201.365 29.0015 199.561 29.7221 197.757 29.7221C195.772 29.7221 194.148 29.0015 192.704 27.5605C191.261 26.1194 190.539 24.1379 190.539 21.616C190.539 19.0942 191.261 17.1127 192.704 15.6716C193.967 14.0504 195.772 13.3299 197.576 13.3299C199.561 13.3299 201.185 14.0504 202.809 15.4915C204.252 16.9326 204.974 18.914 204.974 21.4359C204.974 24.1379 204.252 26.1194 202.809 27.5605ZM171.233 29.5419C169.248 29.5419 167.804 28.281 167.804 25.7591V14.2306H175.202V8.46628H167.804V1.26094H161.128V8.46628V14.2306V25.7591C161.128 32.4241 164.917 35.6665 170.691 35.4863C172.676 35.4863 174.3 35.1261 176.104 34.4055L174.3 28.8214C173.398 29.3618 172.135 29.5419 171.233 29.5419Z" transform="translate(119.989 26.1265)" fill="#0A1AAE"/>
</svg>
