<svg width="197" height="195" viewBox="0 0 197 195" fill="none" xmlns="http://www.w3.org/2000/svg">
<path d="M23.2718 51.4247C43.011 33.0228 43.2211 -1.97336e-06 38.2276 -1.97336e-06C33.2391 -1.97336e-06 18.122 8.70952 8.57977 18.5148C-0.962466 28.32 0.0293794 50.3948 0.0293794 50.3948L7.77848 70.7108C7.77848 70.7108 3.5326 69.8266 23.2718 51.4247Z" transform="translate(142.455 194.769) scale(1.25 -1.25)" fill="#C8A484"/>
<path d="M23.2718 51.4247C43.011 33.0228 43.2211 -1.97336e-06 38.2276 -1.97336e-06C33.2391 -1.97336e-06 18.122 8.70952 8.57977 18.5148C-0.962466 28.32 0.0293794 50.3948 0.0293794 50.3948L7.77848 70.7108C7.77848 70.7108 3.5326 69.8266 23.2718 51.4247Z" transform="translate(124.133 194.769) scale(1.25 -1.25)" fill="#C8A484"/>
<path d="M2.71441 0C-2.17153 0 -2.17153 32.9193 17.3722 51.7304C36.916 70.5462 32.03 70.5462 32.03 70.5462L41.8019 51.7304C41.8019 51.7304 41.8019 28.2166 32.03 18.8111C22.2582 9.40553 7.60035 0 2.71441 0Z" transform="translate(3.49585 194.64) scale(1.25 -1.25)" fill="#C8A484"/>
<path d="M2.71441 0C-2.17153 0 -2.17153 32.9193 17.3722 51.7304C36.916 70.5462 32.03 70.5462 32.03 70.5462L41.8019 51.7304C41.8019 51.7304 41.8019 28.2166 32.03 18.8111C22.2582 9.40553 7.60035 0 2.71441 0Z" transform="translate(21.8181 194.64) scale(1.25 -1.25)" fill="#C8A484"/>
<path d="M24.6351 21.4663C21.8453 31.5019 14.2965 38.2786 7.77865 36.595C1.26081 34.9162 -1.74893 25.4166 1.04094 15.3809C3.83081 5.34518 11.3796 -1.4268 17.8974 0.256787C24.4153 1.93567 27.4299 11.4353 24.6351 21.4663Z" transform="translate(0 129.492) scale(1.25 -1.25)" fill="#F7DECE"/>
<path d="M24.6372 15.3843C27.4271 25.42 24.4125 34.9196 17.8946 36.6031C11.3817 38.2773 3.83288 31.51 1.04301 21.4697C-1.75175 11.434 1.26288 1.93907 7.78072 0.255483C14.2986 -1.4234 21.8473 5.34858 24.6372 15.3843Z" transform="translate(164.903 129.5) scale(1.25 -1.25)" fill="#F7DECE"/>
<path d="M127.034 70.5415C127.034 114.696 98.5982 145.786 63.5172 145.786C28.4362 145.786 0 114.696 0 70.5415C0 26.3872 28.4362 0 63.5172 0C98.5982 0 127.034 26.3872 127.034 70.5415Z" transform="translate(19.1038 194.64) scale(1.25 -1.25)" fill="#F7DECE"/>
<path d="M24.4302 0C12.6063 0 3.54775 3.2308 3.16665 3.36248C0.640616 4.27481 -0.634612 6.98831 0.31326 9.41963C1.26113 11.851 4.07054 13.0831 6.59657 12.1708C6.67475 12.1425 14.4629 9.40553 24.4302 9.40553C34.4024 9.40553 42.1906 12.1425 42.2639 12.1708C44.7851 13.0831 47.6091 11.8369 48.5472 9.41023C49.4902 6.9789 48.215 4.27481 45.6939 3.36248C45.3127 3.2308 36.2591 0 24.4302 0Z" transform="translate(67.9624 157.32) scale(1.25 -1.25)" fill="#DF1F32"/>
<path d="M14.6578 0H4.88594C2.1889 0 0 2.10214 0 4.70276C0 7.30339 2.1889 9.40553 4.88594 9.40553H14.6578C17.3597 9.40553 19.5438 7.30339 19.5438 4.70276C19.5438 2.10214 17.3597 0 14.6578 0Z" transform="translate(86.2854 129.978) scale(1.25 -1.25)" fill="#C1694F"/>
<path d="M4.88594 0C2.1889 0 0 2.10214 0 4.70276V14.1083C0 16.7042 2.1889 18.8111 4.88594 18.8111C7.58298 18.8111 9.77188 16.7042 9.77188 14.1083V4.70276C9.77188 2.10214 7.58298 0 4.88594 0Z" transform="translate(55.7483 112.342) scale(1.25 -1.25)" fill="#662113"/>
<path d="M4.88594 0C2.18401 0 0 2.10214 0 4.70276V14.1083C0 16.7042 2.18401 18.8111 4.88594 18.8111C7.58786 18.8111 9.77188 16.7042 9.77188 14.1083V4.70276C9.77188 2.10214 7.58786 0 4.88594 0Z" transform="translate(129.037 112.342) scale(1.25 -1.25)" fill="#662113"/>
<path d="M139.446 51.7304C129.674 84.6497 105.244 94.0553 90.5866 94.0553C80.8147 94.0553 71.0428 84.6497 71.0428 84.6497C71.0428 84.6497 61.266 94.0553 51.4991 94.0553C36.8412 94.0553 12.4116 84.6497 2.63968 51.7304C-5.41234 24.6002 7.52562 0 7.52562 0C7.52562 14.113 17.2975 42.3249 41.7272 42.3249C66.1569 42.3249 71.0428 61.1359 71.0428 61.1359C71.0428 61.1359 74.8832 42.3249 99.3128 42.3249C123.743 42.3249 134.56 14.113 134.56 0C134.56 0 147.498 24.6002 139.446 51.7304Z" transform="translate(9.69678 118.218) scale(1.25 -1.25)" fill="#C8A484"/>
</svg>
