<svg width="1211" height="566" viewBox="0 0 1211 566" fill="none" xmlns="http://www.w3.org/2000/svg">
<rect width="1194" height="550" transform="translate(7.99951 8)" fill="#FFF27C"/>
<path fill-rule="evenodd" clip-rule="evenodd" d="M5.9034 9.94053C10.6151 12.0704 14.5535 12.6593 18.0736 12.2511C22.3946 11.7491 25.8287 9.75693 28.879 7.9874L29.0028 7.91611C32.1715 6.07822 34.953 4.49228 38.3861 4.09482C41.7474 3.70517 46.0025 4.44053 51.9959 7.91611C58.5025 11.6895 63.6226 12.7667 68.0736 12.2511C72.3946 11.7491 75.8287 9.75693 78.879 7.9874L79.0028 7.91611C82.1715 6.07822 84.953 4.49228 88.3861 4.09482C91.7474 3.70517 96.0025 4.44053 101.996 7.91611C108.503 11.6895 113.623 12.7667 118.074 12.2511C122.395 11.7491 125.829 9.75693 128.879 7.9874L129.003 7.91611C132.171 6.07822 134.953 4.49228 138.386 4.09482C141.747 3.70517 146.003 4.44053 151.996 7.91611C158.503 11.6895 163.623 12.7667 168.074 12.2511C172.395 11.7491 175.829 9.75693 178.879 7.9874L179.003 7.91611C182.171 6.07822 184.953 4.49228 188.386 4.09482C191.747 3.70517 196.003 4.44053 201.996 7.91611C208.503 11.6895 213.623 12.7667 218.074 12.2511C222.395 11.7491 225.829 9.75693 228.879 7.9874L229.003 7.91611C232.171 6.07822 234.953 4.49228 238.386 4.09482C241.747 3.70517 246.003 4.44053 251.996 7.91611C258.503 11.6895 263.623 12.7667 268.074 12.2511C272.395 11.7491 275.829 9.75693 278.879 7.9874L279.003 7.91611C282.171 6.07822 284.953 4.49228 288.386 4.09482C291.747 3.70517 296.003 4.44053 301.996 7.91611C308.503 11.6895 313.623 12.7667 318.074 12.2511C322.395 11.7491 325.829 9.75693 328.879 7.9874L329.003 7.91611C332.171 6.07822 334.953 4.49228 338.386 4.09482C341.747 3.70517 346.003 4.44053 351.996 7.91611C358.503 11.6895 363.623 12.7667 368.074 12.2511C372.395 11.7491 375.829 9.75693 378.879 7.9874L379.003 7.91611C382.171 6.07822 384.953 4.49228 388.386 4.09482C391.747 3.70517 396.003 4.44053 401.996 7.91611C408.503 11.6895 413.623 12.7667 418.074 12.2511C422.395 11.7491 425.829 9.75693 428.879 7.9874L429.003 7.91611C432.171 6.07822 434.953 4.49228 438.386 4.09482C441.747 3.70517 446.003 4.44053 451.996 7.91611C458.503 11.6895 463.623 12.7667 468.074 12.2511C472.395 11.7491 475.829 9.75693 478.879 7.9874L479.003 7.91611C482.171 6.07822 484.953 4.49228 488.386 4.09482C491.747 3.70517 496.003 4.44053 501.996 7.91611C508.503 11.6895 513.623 12.7667 518.074 12.2511C522.395 11.7491 525.829 9.75693 528.879 7.9874L529.003 7.91611C532.171 6.07822 534.953 4.49228 538.386 4.09482C541.747 3.70517 546.003 4.44053 551.996 7.91611C558.503 11.6895 563.623 12.7667 568.074 12.2511C572.395 11.7491 575.829 9.75693 578.879 7.9874L579.003 7.91611C582.171 6.07822 584.953 4.49228 588.386 4.09482C591.747 3.70517 596.003 4.44053 601.996 7.91611C608.503 11.6895 613.623 12.7667 618.074 12.2511C622.395 11.7491 625.829 9.75693 628.879 7.9874L629.003 7.91611C632.171 6.07822 634.953 4.49228 638.386 4.09482C641.747 3.70517 646.003 4.44053 651.996 7.91611C658.503 11.6895 663.623 12.7667 668.074 12.2511C672.395 11.7491 675.829 9.75693 678.879 7.9874L679.003 7.91611C682.171 6.07822 684.953 4.49228 688.386 4.09482C691.747 3.70517 696.003 4.44053 701.996 7.91611C708.503 11.6895 713.623 12.7667 718.074 12.2511C722.395 11.7491 725.829 9.75693 728.879 7.9874L729.003 7.91611C732.171 6.07822 734.953 4.49228 738.386 4.09482C741.747 3.70517 746.003 4.44053 751.996 7.91611C758.503 11.6895 763.623 12.7667 768.074 12.2511C772.395 11.7491 775.829 9.75693 778.879 7.9874L779.003 7.91611C782.171 6.07822 784.953 4.49228 788.386 4.09482C791.747 3.70517 796.003 4.44053 801.996 7.91611C808.503 11.6895 813.623 12.7667 818.074 12.2511C822.395 11.7491 825.829 9.75693 828.879 7.9874L829.003 7.91611C832.171 6.07822 834.953 4.49228 838.386 4.09482C841.747 3.70517 846.003 4.44053 851.996 7.91611C858.503 11.6895 863.623 12.7667 868.074 12.2511C872.395 11.7491 875.829 9.75693 878.879 7.9874L879.003 7.91611C882.171 6.07822 884.953 4.49228 888.386 4.09482C891.747 3.70517 896.003 4.44053 901.996 7.91611C908.503 11.6895 913.623 12.7667 918.074 12.2511C922.395 11.7491 925.829 9.75693 928.879 7.9874L929.003 7.91611C932.171 6.07822 934.953 4.49228 938.386 4.09482C941.747 3.70517 946.003 4.44053 951.996 7.91611C958.503 11.6895 963.623 12.7667 968.074 12.2511C972.395 11.7491 975.829 9.75693 978.879 7.9874L979.003 7.91611C982.171 6.07822 984.953 4.49228 988.386 4.09482C991.747 3.70517 996.003 4.44053 1002 7.91611C1008.5 11.6895 1013.62 12.7667 1018.07 12.2511C1022.39 11.7491 1025.83 9.75693 1028.88 7.9874L1029 7.91611C1032.17 6.07822 1034.95 4.49228 1038.39 4.09482C1041.75 3.70517 1046 4.44053 1052 7.91611C1058.5 11.6895 1063.62 12.7667 1068.07 12.2511C1072.39 11.7491 1075.83 9.75693 1078.88 7.9874L1079 7.91611C1082.17 6.07822 1084.95 4.49228 1088.39 4.09482C1091.75 3.70517 1096 4.44053 1102 7.91611C1108.5 11.6895 1113.62 12.7667 1118.07 12.2511C1122.39 11.7491 1125.83 9.75693 1128.88 7.9874L1129 7.91611C1132.17 6.07822 1134.95 4.49228 1138.39 4.09482C1141.75 3.70517 1146 4.44053 1152 7.91611C1158.5 11.6895 1163.62 12.7667 1168.07 12.2511C1172.39 11.7491 1175.83 9.75693 1178.88 7.9874L1179 7.91611C1182.17 6.07822 1184.95 4.49228 1188.39 4.09482C1190.94 3.79892 1194.01 4.15146 1197.96 5.8624C1194.59 11.961 1193.63 16.8233 1194.12 21.0743C1194.62 25.3956 1196.61 28.8302 1198.38 31.88L1198.46 32.004C1200.29 35.1729 1201.88 37.9542 1202.28 41.3868C1202.67 44.7491 1201.93 49.004 1198.46 54.9972C1194.68 61.504 1193.6 66.6241 1194.12 71.0743C1194.62 75.3956 1196.61 78.8302 1198.38 81.88L1198.46 82.004C1200.29 85.1729 1201.88 87.9542 1202.28 91.3868C1202.67 94.7491 1201.93 99.004 1198.46 104.997C1194.68 111.504 1193.6 116.624 1194.12 121.074C1194.62 125.396 1196.61 128.83 1198.38 131.88L1198.46 132.004C1200.29 135.173 1201.88 137.954 1202.28 141.387C1202.67 144.749 1201.93 149.004 1198.46 154.997C1194.68 161.504 1193.6 166.624 1194.12 171.074C1194.62 175.396 1196.61 178.83 1198.38 181.88L1198.46 182.004C1200.29 185.173 1201.88 187.954 1202.28 191.387C1202.67 194.749 1201.93 199.004 1198.46 204.997C1194.68 211.504 1193.6 216.624 1194.12 221.074C1194.62 225.396 1196.61 228.83 1198.38 231.88L1198.46 232.004C1200.29 235.173 1201.88 237.954 1202.28 241.387C1202.67 244.749 1201.93 249.004 1198.46 254.997C1194.68 261.504 1193.6 266.624 1194.12 271.074C1194.62 275.396 1196.61 278.83 1198.38 281.88L1198.46 282.004C1200.29 285.173 1201.88 287.954 1202.28 291.387C1202.67 294.749 1201.93 299.004 1198.46 304.997C1194.68 311.504 1193.6 316.624 1194.12 321.074C1194.62 325.396 1196.61 328.83 1198.38 331.88L1198.46 332.004C1200.29 335.173 1201.88 337.954 1202.28 341.387C1202.67 344.749 1201.93 349.004 1198.46 354.997C1194.68 361.504 1193.6 366.624 1194.12 371.074C1194.62 375.396 1196.61 378.83 1198.38 381.88L1198.46 382.004C1200.29 385.173 1201.88 387.954 1202.28 391.387C1202.67 394.749 1201.93 399.004 1198.46 404.997C1194.68 411.504 1193.6 416.624 1194.12 421.074C1194.62 425.396 1196.61 428.83 1198.38 431.88L1198.46 432.004C1200.29 435.173 1201.88 437.954 1202.28 441.387C1202.67 444.749 1201.93 449.004 1198.46 454.997C1194.68 461.504 1193.6 466.624 1194.12 471.074C1194.62 475.396 1196.61 478.83 1198.38 481.88L1198.46 482.004C1200.29 485.173 1201.88 487.954 1202.28 491.387C1202.67 494.749 1201.93 499.004 1198.46 504.997C1194.68 511.504 1193.6 516.624 1194.12 521.074C1194.62 525.396 1196.61 528.83 1198.38 531.88L1198.46 532.004C1200.29 535.173 1201.88 537.954 1202.28 541.387C1202.59 544.057 1202.19 547.29 1200.27 551.51C1195.48 549.316 1191.49 548.708 1187.93 549.121C1183.6 549.622 1180.17 551.614 1177.12 553.384L1177 553.456C1173.83 555.294 1171.05 556.879 1167.61 557.277C1164.25 557.667 1160 556.932 1154 553.456C1147.5 549.683 1142.38 548.605 1137.93 549.121C1133.6 549.622 1130.17 551.614 1127.12 553.384L1127 553.456C1123.83 555.294 1121.05 556.879 1117.61 557.277C1114.25 557.667 1110 556.932 1104 553.456C1097.5 549.683 1092.38 548.605 1087.93 549.121C1083.6 549.622 1080.17 551.614 1077.12 553.384L1077 553.456C1073.83 555.294 1071.05 556.879 1067.61 557.277C1064.25 557.667 1060 556.932 1054 553.456C1047.5 549.683 1042.38 548.605 1037.93 549.121C1033.6 549.622 1030.17 551.614 1027.12 553.384L1027 553.456C1023.83 555.294 1021.05 556.879 1017.61 557.277C1014.25 557.667 1010 556.932 1004 553.456C997.497 549.683 992.377 548.605 987.926 549.121C983.604 549.622 980.17 551.614 977.12 553.384L976.996 553.456C973.827 555.294 971.046 556.879 967.613 557.277C964.252 557.667 959.997 556.932 954.003 553.456C947.497 549.683 942.377 548.605 937.926 549.121C933.604 549.622 930.17 551.614 927.12 553.384L926.996 553.456C923.827 555.294 921.046 556.879 917.613 557.277C914.252 557.667 909.997 556.932 904.003 553.456C897.497 549.683 892.377 548.605 887.926 549.121C883.604 549.622 880.17 551.614 877.12 553.384L876.996 553.456C873.827 555.294 871.046 556.879 867.613 557.277C864.252 557.667 859.997 556.932 854.003 553.456C847.497 549.683 842.377 548.605 837.926 549.121C833.604 549.622 830.17 551.614 827.12 553.384L826.996 553.456C823.827 555.294 821.046 556.879 817.613 557.277C814.252 557.667 809.997 556.932 804.003 553.456C797.497 549.683 792.377 548.605 787.926 549.121C783.604 549.622 780.17 551.614 777.12 553.384L776.996 553.456C773.827 555.294 771.046 556.879 767.613 557.277C764.252 557.667 759.997 556.932 754.003 553.456C747.497 549.683 742.377 548.605 737.926 549.121C733.604 549.622 730.17 551.614 727.12 553.384L726.996 553.456C723.827 555.294 721.046 556.879 717.613 557.277C714.252 557.667 709.997 556.932 704.003 553.456C697.497 549.683 692.377 548.605 687.926 549.121C683.604 549.622 680.17 551.614 677.12 553.384L676.996 553.456C673.827 555.294 671.046 556.879 667.613 557.277C664.252 557.667 659.997 556.932 654.003 553.456C647.497 549.683 642.377 548.605 637.926 549.121C633.604 549.622 630.17 551.614 627.12 553.384L626.996 553.456C623.827 555.294 621.046 556.879 617.613 557.277C614.252 557.667 609.997 556.932 604.003 553.456C597.497 549.683 592.377 548.605 587.926 549.121C583.604 549.622 580.17 551.614 577.12 553.384L576.996 553.456C573.827 555.294 571.046 556.879 567.613 557.277C564.252 557.667 559.997 556.932 554.003 553.456C547.497 549.683 542.377 548.605 537.926 549.121C533.604 549.622 530.17 551.614 527.12 553.384L526.996 553.456C523.827 555.294 521.046 556.879 517.613 557.277C514.252 557.667 509.997 556.932 504.003 553.456C497.497 549.683 492.377 548.605 487.926 549.121C483.604 549.622 480.17 551.614 477.12 553.384L476.996 553.456C473.827 555.294 471.046 556.879 467.613 557.277C464.252 557.667 459.997 556.932 454.003 553.456C447.497 549.683 442.377 548.605 437.926 549.121C433.604 549.622 430.17 551.614 427.12 553.384L426.996 553.456C423.827 555.294 421.046 556.879 417.613 557.277C414.252 557.667 409.997 556.932 404.003 553.456C397.497 549.683 392.377 548.605 387.926 549.121C383.604 549.622 380.17 551.614 377.12 553.384L376.996 553.456C373.827 555.294 371.046 556.879 367.613 557.277C364.252 557.667 359.997 556.932 354.003 553.456C347.497 549.683 342.377 548.605 337.926 549.121C333.604 549.622 330.17 551.614 327.12 553.384L326.996 553.456C323.827 555.294 321.046 556.879 317.613 557.277C314.252 557.667 309.997 556.932 304.003 553.456C297.497 549.683 292.377 548.605 287.926 549.121C283.604 549.622 280.17 551.614 277.12 553.384L276.996 553.456C273.827 555.294 271.046 556.879 267.613 557.277C264.252 557.667 259.997 556.932 254.003 553.456C247.497 549.683 242.377 548.605 237.926 549.121C233.604 549.622 230.17 551.614 227.12 553.384L226.996 553.456C223.827 555.294 221.046 556.879 217.613 557.277C214.252 557.667 209.997 556.932 204.003 553.456C197.497 549.683 192.377 548.605 187.926 549.121C183.604 549.622 180.17 551.614 177.12 553.384L176.996 553.456C173.827 555.294 171.046 556.879 167.613 557.277C164.252 557.667 159.997 556.932 154.003 553.456C147.497 549.683 142.377 548.605 137.926 549.121C133.604 549.622 130.17 551.614 127.12 553.384L126.996 553.456C123.827 555.294 121.046 556.879 117.613 557.277C114.252 557.667 109.997 556.932 104.003 553.456C97.4967 549.683 92.3768 548.605 87.9256 549.121C83.6043 549.622 80.17 551.614 77.1197 553.384L76.9964 553.456C73.8275 555.294 71.046 556.879 67.6131 557.277C64.2515 557.667 59.9967 556.932 54.0033 553.456C47.4967 549.683 42.3768 548.605 37.9256 549.121C33.6043 549.622 30.17 551.614 27.1197 553.384L26.9964 553.456C23.8275 555.294 21.046 556.879 17.6131 557.277C15.0877 557.57 12.0584 557.229 8.16659 555.567C11.7371 549.267 12.755 544.276 12.2506 539.927C11.7494 535.606 9.75716 532.171 7.98763 529.12L7.9161 528.997C6.07821 525.828 4.49276 523.047 4.09457 519.613C3.70443 516.252 4.43954 511.997 7.91561 506.004C11.6895 499.497 12.7667 494.377 12.2506 489.927C11.7494 485.606 9.75716 482.171 7.98763 479.12L7.9161 478.997C6.07821 475.828 4.49276 473.047 4.09457 469.613C3.70443 466.252 4.43954 461.997 7.91561 456.004C11.6895 449.497 12.7667 444.377 12.2506 439.927C11.7494 435.606 9.75716 432.171 7.98763 429.12L7.9161 428.997C6.07821 425.828 4.49276 423.047 4.09457 419.613C3.70443 416.252 4.43954 411.997 7.91561 406.004C11.6895 399.497 12.7667 394.377 12.2506 389.927C11.7494 385.606 9.75716 382.171 7.98763 379.12L7.9161 378.997C6.07821 375.828 4.49276 373.047 4.09457 369.613C3.70443 366.252 4.43954 361.997 7.91561 356.004C11.6895 349.497 12.7667 344.377 12.2506 339.927C11.7494 335.606 9.75716 332.171 7.98763 329.12L7.9161 328.997C6.07821 325.828 4.49276 323.047 4.09457 319.613C3.70443 316.252 4.43954 311.997 7.91561 306.004C11.6895 299.497 12.7667 294.377 12.2506 289.927C11.7494 285.606 9.75716 282.171 7.98763 279.12L7.9161 278.997C6.07821 275.828 4.49276 273.047 4.09457 269.613C3.70443 266.252 4.43954 261.997 7.91561 256.004C11.6895 249.497 12.7667 244.377 12.2506 239.927C11.7494 235.606 9.75716 232.171 7.98763 229.12L7.9161 228.997C6.07821 225.828 4.49276 223.047 4.09457 219.613C3.70443 216.252 4.43954 211.997 7.91561 206.004C11.6895 199.497 12.7667 194.377 12.2506 189.927C11.7494 185.606 9.75716 182.171 7.98763 179.12L7.9161 178.997C6.07821 175.828 4.49276 173.047 4.09457 169.613C3.70443 166.252 4.43954 161.997 7.91561 156.004C11.6895 149.497 12.7667 144.377 12.2506 139.927C11.7494 135.606 9.75716 132.171 7.98763 129.12L7.9161 128.997C6.07821 125.828 4.49276 123.047 4.09457 119.613C3.70443 116.252 4.43954 111.997 7.91561 106.004C11.6895 99.4972 12.7667 94.377 12.2506 89.9268C11.7494 85.6056 9.75716 82.171 7.98763 79.1202L7.9161 78.9972C6.07821 75.8282 4.49276 73.047 4.09457 69.6134C3.70443 66.252 4.43954 61.9972 7.91561 56.004C11.6895 49.4972 12.7667 44.377 12.2506 39.9269C11.7494 35.6056 9.75716 32.171 7.98763 29.1202L7.9161 28.9972C6.07821 25.8282 4.49276 23.047 4.09457 19.6134C3.79574 17.0392 4.15682 13.9415 5.9034 9.94053ZM4.45541 503.997C7.93172 498.004 8.66708 493.749 8.27718 490.387C7.87899 486.954 6.29378 484.173 4.45589 481.004L4.38412 480.88C2.61459 477.83 0.622398 474.396 0.121177 470.074C-0.39518 465.624 0.681724 460.504 4.45541 453.997C7.93172 448.004 8.66708 443.749 8.27718 440.387C7.87899 436.954 6.29378 434.173 4.45589 431.004L4.38412 430.88C2.61459 427.83 0.622398 424.396 0.121177 420.074C-0.39518 415.624 0.681724 410.504 4.45541 403.997C7.93172 398.004 8.66708 393.749 8.27718 390.387C7.87899 386.954 6.29378 384.173 4.45589 381.004L4.38412 380.88C2.61459 377.83 0.622398 374.396 0.121177 370.074C-0.39518 365.624 0.681724 360.504 4.45541 353.997C7.93172 348.004 8.66708 343.749 8.27718 340.387C7.87899 336.954 6.29378 334.173 4.45589 331.004L4.38412 330.88C2.61459 327.83 0.622398 324.396 0.121177 320.074C-0.39518 315.624 0.681724 310.504 4.45541 303.997C7.93172 298.004 8.66708 293.749 8.27718 290.387C7.87899 286.954 6.29378 284.173 4.45589 281.004L4.38412 280.88C2.61459 277.83 0.622398 274.396 0.121177 270.074C-0.39518 265.624 0.681724 260.504 4.45541 253.997C7.93172 248.004 8.66708 243.749 8.27718 240.387C7.87899 236.954 6.29378 234.173 4.45589 231.004L4.38412 230.88C2.61459 227.83 0.622398 224.396 0.121177 220.074C-0.39518 215.624 0.681724 210.504 4.45541 203.997C7.93172 198.004 8.66708 193.749 8.27718 190.387C7.87899 186.954 6.29378 184.173 4.45589 181.004L4.38412 180.88C2.61459 177.83 0.622398 174.396 0.121177 170.074C-0.39518 165.624 0.681724 160.504 4.45541 153.997C7.93172 148.004 8.66708 143.749 8.27718 140.387C7.87899 136.954 6.29378 134.173 4.45589 131.004L4.38412 130.88C2.61459 127.83 0.622398 124.396 0.121177 120.074C-0.39518 115.624 0.681724 110.504 4.45541 103.997C7.93172 98.004 8.66708 93.7491 8.27718 90.3868C7.87899 86.9542 6.29378 84.1729 4.45589 81.004L4.38412 80.88C2.61459 77.8302 0.622398 74.3956 0.121177 70.0743C-0.39518 65.6241 0.681724 60.504 4.45541 53.9972C7.93172 48.004 8.66708 43.7491 8.27718 40.3868C7.87899 36.9542 6.29378 34.1729 4.45589 31.004L4.38412 30.88C2.61459 27.8302 0.622398 24.3956 0.121177 20.0743C-0.281167 16.6065 0.283775 12.7325 2.33797 8.1124L1.99593 7.91611L4.00277 4.45615L4.14584 4.53916C4.24691 4.35947 4.35018 4.17881 4.45541 3.99717L7.91561 6.004L7.7076 6.36631C11.8211 8.20029 14.9891 8.58115 17.6126 8.27744C21.0455 7.879 23.827 6.29404 26.9959 4.45615L27.1192 4.38388C30.1695 2.61435 33.6038 0.622165 37.9251 0.121189C42.3763 -0.395413 47.4962 0.682712 54.0028 4.45615C59.9962 7.93174 64.2511 8.66709 67.6126 8.27744C71.0455 7.879 73.827 6.29404 76.9959 4.45615L77.1192 4.38388C80.1695 2.61435 83.6038 0.622165 87.9251 0.121189C92.3763 -0.395413 97.4962 0.682712 104.003 4.45615C109.996 7.93174 114.251 8.66709 117.613 8.27744C121.045 7.879 123.827 6.29404 126.996 4.45615L127.119 4.38388C130.17 2.61435 133.604 0.622165 137.925 0.121189C142.376 -0.395413 147.496 0.682712 154.003 4.45615C159.996 7.93174 164.251 8.66709 167.613 8.27744C171.045 7.879 173.827 6.29404 176.996 4.45615L177.119 4.38388C180.17 2.61435 183.604 0.622165 187.925 0.121189C192.376 -0.395413 197.496 0.682712 204.003 4.45615C209.996 7.93174 214.251 8.66709 217.613 8.27744C221.045 7.879 223.827 6.29404 226.996 4.45615L227.119 4.38388C230.17 2.61435 233.604 0.622165 237.925 0.121189C242.376 -0.395413 247.496 0.682712 254.003 4.45615C259.996 7.93174 264.251 8.66709 267.613 8.27744C271.046 7.879 273.827 6.29404 276.996 4.45615L277.119 4.38388C280.17 2.61435 283.604 0.622165 287.925 0.121189C292.376 -0.395413 297.496 0.682712 304.003 4.45615C309.996 7.93174 314.251 8.66709 317.613 8.27744C321.046 7.879 323.827 6.29404 326.996 4.45615L327.119 4.38388C330.17 2.61435 333.604 0.622165 337.925 0.121189C342.376 -0.395413 347.496 0.682712 354.003 4.45615C359.996 7.93174 364.251 8.66709 367.613 8.27744C371.046 7.879 373.827 6.29404 376.996 4.45615L377.119 4.38388C380.17 2.61435 383.604 0.622165 387.925 0.121189C392.376 -0.395413 397.496 0.682712 404.003 4.45615C409.996 7.93174 414.251 8.66709 417.613 8.27744C421.046 7.879 423.827 6.29404 426.996 4.45615L427.119 4.38388C430.17 2.61435 433.604 0.622165 437.925 0.121189C442.376 -0.395413 447.496 0.682712 454.003 4.45615C459.996 7.93174 464.251 8.66709 467.613 8.27744C471.046 7.879 473.827 6.29404 476.996 4.45615L477.119 4.38388C480.17 2.61435 483.604 0.622165 487.925 0.121189C492.376 -0.395413 497.496 0.682712 504.003 4.45615C509.996 7.93174 514.251 8.66709 517.613 8.27744C521.045 7.879 523.827 6.29404 526.996 4.45615L527.119 4.38388C530.169 2.61435 533.604 0.622165 537.925 0.121189C542.376 -0.395413 547.496 0.682712 554.003 4.45615C559.996 7.93174 564.251 8.66709 567.613 8.27744C571.045 7.879 573.827 6.29404 576.996 4.45615L577.119 4.38388C580.169 2.61435 583.604 0.622165 587.925 0.121189C592.376 -0.395413 597.496 0.682712 604.003 4.45615C609.996 7.93174 614.251 8.66709 617.613 8.27744C621.045 7.879 623.827 6.29404 626.996 4.45615L627.119 4.38388C630.169 2.61435 633.604 0.622165 637.925 0.121189C642.376 -0.395413 647.496 0.682712 654.003 4.45615C659.996 7.93174 664.251 8.66709 667.613 8.27744C671.045 7.879 673.827 6.29404 676.996 4.45615L677.119 4.38388C680.169 2.61435 683.604 0.622165 687.925 0.121189C692.376 -0.395413 697.496 0.682712 704.003 4.45615C709.996 7.93174 714.251 8.66709 717.613 8.27744C721.045 7.879 723.827 6.29404 726.996 4.45615L727.119 4.38388C730.169 2.61435 733.604 0.622165 737.925 0.121189C742.376 -0.395413 747.496 0.682712 754.003 4.45615C759.996 7.93174 764.251 8.66709 767.613 8.27744C771.045 7.879 773.827 6.29404 776.996 4.45615L777.119 4.38388C780.169 2.61435 783.604 0.622165 787.925 0.121189C792.376 -0.395413 797.496 0.682712 804.003 4.45615C809.996 7.93174 814.251 8.66709 817.613 8.27744C821.045 7.879 823.827 6.29404 826.996 4.45615L827.119 4.38388C830.169 2.61435 833.604 0.622165 837.925 0.121189C842.376 -0.395413 847.496 0.682712 854.003 4.45615C859.996 7.93174 864.251 8.66709 867.613 8.27744C871.045 7.879 873.827 6.29404 876.996 4.45615L877.119 4.38388C880.169 2.61435 883.604 0.622165 887.925 0.121189C892.376 -0.395413 897.496 0.682712 904.003 4.45615C909.996 7.93174 914.251 8.66709 917.613 8.27744C921.045 7.879 923.827 6.29404 926.996 4.45615L927.119 4.38388C930.169 2.61435 933.604 0.622165 937.925 0.121189C942.376 -0.395413 947.496 0.682712 954.003 4.45615C959.996 7.93174 964.251 8.66709 967.613 8.27744C971.045 7.879 973.827 6.29404 976.996 4.45615L977.119 4.38388C980.169 2.61435 983.604 0.622165 987.925 0.121189C992.376 -0.395413 997.496 0.682712 1004 4.45615C1010 7.93174 1014.25 8.66709 1017.61 8.27744C1021.05 7.879 1023.83 6.29404 1027 4.45615L1027.12 4.38388C1030.17 2.61435 1033.6 0.622165 1037.93 0.121189C1042.38 -0.395413 1047.5 0.682712 1054 4.45615C1060 7.93174 1064.25 8.66709 1067.61 8.27744C1071.05 7.879 1073.83 6.29404 1077 4.45615L1077.12 4.38388C1080.17 2.61435 1083.6 0.622165 1087.93 0.121189C1092.38 -0.395413 1097.5 0.682712 1104 4.45615C1110 7.93174 1114.25 8.66709 1117.61 8.27744C1121.05 7.879 1123.83 6.29404 1127 4.45615L1127.12 4.38388C1130.17 2.61435 1133.6 0.622165 1137.93 0.121189C1142.38 -0.395413 1147.5 0.682712 1154 4.45615C1160 7.93174 1164.25 8.66709 1167.61 8.27744C1171.05 7.879 1173.83 6.29404 1177 4.45615L1177.12 4.38388C1180.17 2.61435 1183.6 0.622165 1187.93 0.121189C1192.38 -0.395413 1197.5 0.682712 1204 4.45615L1202 7.91611L1201.54 7.65732C1198.39 13.3087 1197.72 17.3751 1198.09 20.6134C1198.49 24.047 1200.08 26.8282 1201.92 29.9972L1201.99 30.1202C1203.76 33.171 1205.75 36.6056 1206.25 40.9269C1206.77 45.377 1205.69 50.4972 1201.92 57.004C1198.44 62.9972 1197.7 67.252 1198.09 70.6134C1198.49 74.047 1200.08 76.8282 1201.92 79.9972L1201.99 80.1202C1203.76 83.171 1205.75 86.6056 1206.25 90.9268C1206.77 95.377 1205.69 100.497 1201.92 107.004C1198.44 112.997 1197.7 117.252 1198.09 120.613C1198.49 124.047 1200.08 126.828 1201.92 129.997L1201.99 130.12C1203.76 133.171 1205.75 136.606 1206.25 140.927C1206.77 145.377 1205.69 150.497 1201.92 157.004C1198.44 162.997 1197.7 167.252 1198.09 170.613C1198.49 174.047 1200.08 176.828 1201.92 179.997L1201.99 180.12C1203.76 183.171 1205.75 186.606 1206.25 190.927C1206.77 195.377 1205.69 200.497 1201.92 207.004C1198.44 212.997 1197.7 217.252 1198.09 220.613C1198.49 224.047 1200.08 226.828 1201.92 229.997L1201.99 230.12C1203.76 233.171 1205.75 236.606 1206.25 240.927C1206.77 245.377 1205.69 250.497 1201.92 257.004C1198.44 262.997 1197.7 267.252 1198.09 270.613C1198.49 274.047 1200.08 276.828 1201.92 279.997L1201.99 280.12C1203.76 283.171 1205.75 286.606 1206.25 290.927C1206.77 295.377 1205.69 300.497 1201.92 307.004C1198.44 312.997 1197.7 317.252 1198.09 320.613C1198.49 324.047 1200.08 326.828 1201.92 329.997L1201.99 330.12C1203.76 333.171 1205.75 336.606 1206.25 340.927C1206.77 345.377 1205.69 350.497 1201.92 357.004C1198.44 362.997 1197.7 367.252 1198.09 370.613C1198.49 374.047 1200.08 376.828 1201.92 379.997L1201.99 380.12C1203.76 383.171 1205.75 386.606 1206.25 390.927C1206.77 395.377 1205.69 400.497 1201.92 407.004C1198.44 412.997 1197.7 417.252 1198.09 420.613C1198.49 424.047 1200.08 426.828 1201.92 429.997L1201.99 430.12C1203.76 433.171 1205.75 436.606 1206.25 440.927C1206.77 445.377 1205.69 450.497 1201.92 457.004C1198.44 462.997 1197.7 467.252 1198.09 470.613C1198.49 474.047 1200.08 476.828 1201.92 479.997L1201.99 480.12C1203.76 483.171 1205.75 486.606 1206.25 490.927C1206.77 495.377 1205.69 500.497 1201.92 507.004C1198.44 512.997 1197.7 517.252 1198.09 520.613C1198.49 524.047 1200.08 526.828 1201.92 529.997L1201.99 530.12C1203.76 533.171 1205.75 536.606 1206.25 540.927C1206.67 544.51 1206.05 548.526 1203.82 553.352L1204 553.456L1202 556.916L1201.97 556.903L1201.92 557.004L1199.19 555.421C1194.63 553.23 1191.2 552.769 1188.39 553.095C1184.95 553.492 1182.17 555.078 1179 556.916L1178.88 556.987C1175.83 558.757 1172.4 560.749 1168.07 561.251C1163.62 561.767 1158.5 560.69 1152 556.916C1146 553.441 1141.75 552.705 1138.39 553.095C1134.95 553.492 1132.17 555.078 1129 556.916L1128.88 556.987C1125.83 558.757 1122.4 560.749 1118.07 561.251C1113.62 561.767 1108.5 560.69 1102 556.916C1096 553.441 1091.75 552.705 1088.39 553.095C1084.95 553.492 1082.17 555.078 1079 556.916L1078.88 556.987C1075.83 558.757 1072.4 560.749 1068.07 561.251C1063.62 561.767 1058.5 560.69 1052 556.916C1046 553.441 1041.75 552.705 1038.39 553.095C1034.95 553.492 1032.17 555.078 1029 556.916L1028.88 556.987C1025.83 558.757 1022.4 560.749 1018.07 561.251C1013.62 561.767 1008.5 560.69 1002 556.916C996.003 553.441 991.748 552.705 988.387 553.095C984.953 553.492 982.172 555.078 979.003 556.916L978.879 556.987C975.829 558.757 972.395 560.749 968.074 561.251C963.623 561.767 958.503 560.69 951.996 556.916C946.003 553.441 941.748 552.705 938.387 553.095C934.953 553.492 932.172 555.078 929.003 556.916L928.879 556.987C925.829 558.757 922.395 560.749 918.074 561.251C913.623 561.767 908.503 560.69 901.996 556.916C896.003 553.441 891.748 552.705 888.387 553.095C884.953 553.492 882.172 555.078 879.003 556.916L878.879 556.987C875.829 558.757 872.395 560.749 868.074 561.251C863.623 561.767 858.503 560.69 851.996 556.916C846.003 553.441 841.748 552.705 838.387 553.095C834.953 553.492 832.172 555.078 829.003 556.916L828.879 556.987C825.829 558.757 822.395 560.749 818.074 561.251C813.623 561.767 808.503 560.69 801.996 556.916C796.003 553.441 791.748 552.705 788.387 553.095C784.953 553.492 782.172 555.078 779.003 556.916L778.879 556.987C775.829 558.757 772.395 560.749 768.074 561.251C763.623 561.767 758.503 560.69 751.996 556.916C746.003 553.441 741.748 552.705 738.387 553.095C734.953 553.492 732.172 555.078 729.003 556.916L728.879 556.987C725.829 558.757 722.395 560.749 718.074 561.251C713.623 561.767 708.503 560.69 701.996 556.916C696.003 553.441 691.748 552.705 688.387 553.095C684.953 553.492 682.172 555.078 679.003 556.916L678.879 556.987C675.829 558.757 672.395 560.749 668.074 561.251C663.623 561.767 658.503 560.69 651.996 556.916C646.003 553.441 641.748 552.705 638.387 553.095C634.953 553.492 632.172 555.078 629.003 556.916L628.879 556.987C625.829 558.757 622.395 560.749 618.074 561.251C613.623 561.767 608.503 560.69 601.996 556.916C596.003 553.441 591.748 552.705 588.387 553.095C584.953 553.492 582.172 555.078 579.003 556.916L578.879 556.987C575.829 558.757 572.395 560.749 568.074 561.251C563.623 561.767 558.503 560.69 551.996 556.916C546.003 553.441 541.748 552.705 538.387 553.095C534.953 553.492 532.172 555.078 529.003 556.916L528.879 556.987C525.829 558.757 522.395 560.749 518.074 561.251C513.623 561.767 508.503 560.69 501.996 556.916C496.003 553.441 491.748 552.705 488.387 553.095C484.953 553.492 482.172 555.078 479.003 556.916L478.879 556.987C475.829 558.757 472.395 560.749 468.074 561.251C463.623 561.767 458.503 560.69 451.996 556.916C446.003 553.441 441.748 552.705 438.387 553.095C434.953 553.492 432.172 555.078 429.003 556.916L428.879 556.987C425.829 558.757 422.395 560.749 418.074 561.251C413.623 561.767 408.503 560.69 401.996 556.916C396.003 553.441 391.748 552.705 388.387 553.095C384.953 553.492 382.172 555.078 379.003 556.916L378.879 556.987C375.829 558.757 372.395 560.749 368.074 561.251C363.623 561.767 358.503 560.69 351.996 556.916C346.003 553.441 341.748 552.705 338.387 553.095C334.953 553.492 332.172 555.078 329.003 556.916L328.879 556.987C325.829 558.757 322.395 560.749 318.074 561.251C313.623 561.767 308.503 560.69 301.996 556.916C296.003 553.441 291.748 552.705 288.387 553.095C284.953 553.492 282.172 555.078 279.003 556.916L278.879 556.987C275.829 558.757 272.395 560.749 268.074 561.251C263.623 561.767 258.503 560.69 251.996 556.916C246.003 553.441 241.748 552.705 238.387 553.095C234.953 553.492 232.172 555.078 229.003 556.916L228.879 556.987C225.829 558.757 222.395 560.749 218.074 561.251C213.623 561.767 208.503 560.69 201.996 556.916C196.003 553.441 191.748 552.705 188.387 553.095C184.953 553.492 182.172 555.078 179.003 556.916L178.879 556.987C175.829 558.757 172.395 560.749 168.074 561.251C163.623 561.767 158.503 560.69 151.996 556.916C146.003 553.441 141.748 552.705 138.387 553.095C134.953 553.492 132.172 555.078 129.003 556.916L128.879 556.987C125.829 558.757 122.395 560.749 118.074 561.251C113.623 561.767 108.503 560.69 101.996 556.916C96.003 553.441 91.7479 552.705 88.3866 553.095C84.9535 553.492 82.172 555.078 79.0033 556.916L78.8795 556.987C75.8292 558.757 72.3951 560.749 68.0741 561.251C63.6231 561.767 58.503 560.69 51.9964 556.916C46.003 553.441 41.7479 552.705 38.3866 553.095C34.9535 553.492 32.172 555.078 29.0033 556.916L28.8795 556.987C25.8292 558.757 22.3951 560.749 18.0741 561.251C13.6231 561.767 8.50301 560.69 1.99642 556.916L4.00326 553.456C4.19662 553.568 4.38827 553.678 4.57821 553.784C7.94906 547.903 8.66244 543.709 8.27718 540.387C7.87899 536.954 6.29378 534.173 4.45589 531.004L4.38412 530.88C2.61459 527.83 0.622398 524.396 0.121177 520.074C-0.39518 515.624 0.681724 510.504 4.45541 503.997Z" transform="translate(2 2)" fill="#0A1AAE" stroke="#0A1AAE" stroke-width="4"/>
</svg>
